<?xml version="1.0" encoding="utf-8"?>
<!-- Generator: Adobe Illustrator 18.0.0, SVG Export Plug-In . SVG Version: 6.00 Build 0)  -->
<!DOCTYPE svg PUBLIC "-//W3C//DTD SVG 1.1//EN" "http://www.w3.org/Graphics/SVG/1.1/DTD/svg11.dtd">
<svg version="1.1" id="Layer_1" xmlns="http://www.w3.org/2000/svg" xmlns:xlink="http://www.w3.org/1999/xlink" x="0px" y="0px"
	 viewBox="59.5 60.4 37 37" enable-background="new 59.5 60.4 37 37" xml:space="preserve">
<path fill="#FFFFFF" d="M73,60.9h1c0.7,0.3,1.4,0.6,2,1.1c0.2,0.8,0.6,1.7,0.3,2.4c-0.3,0.2-0.6,0.3-0.9,0.5c0,0.3,0.1,0.6,0.1,1
	c0.6,0,1.2-0.2,1.8-0.3c0.1-0.3,0.1-0.7,0.3-1c0,0.2,0.1,0.4,0.1,0.7c0.3,0.2,0.6,0.4,1,0.4c2.3,0,4.8,0,7.1,0
	c0.3,0,0.4,0.3,0.6,0.4c0-0.5,0-1,0-1.5c0.1,0,0.2,0,0.3,0c0,0.4,0,0.9,0.1,1.3c0.1,0,0.3,0,0.4,0.1c0,0.2,0,0.3,0,0.5
	c0.8,0,1.5,0.1,2.2-0.1c0.5-0.1,1,0,1.5,0c0.1,0.1,0.1,0.2,0.1,0.4c-0.6,0-1.3,0.1-1.9,0c-1-0.1-2,0.1-2.9,0c0,0.1-0.1,0.3-0.1,0.4
	c-1,0-1.9,0-2.8,0c-0.3,0-0.7,0.1-0.9,0.3c-0.3,0.3-0.6,0.6-0.9,1c-0.1,0.6,0.2,1.2,0.3,1.8c-0.2,0.1-0.5,0.2-0.7,0.2
	c-0.2,0.7-0.1,1.5-0.8,2c-0.4,0.3-0.7,0.6-1.1,0.8c-0.3,0.1-0.6,0-0.9,0c-1.1-0.2-2-0.8-3-1.3c-0.1,0.3-0.1,0.5-0.2,0.8
	c0.3,0.2,0.7,0.3,0.8,0.7c0.2,0.5,0,1.1,0,1.7c0,0.5-0.1,1-0.1,1.5c0,0.5-0.3,0.9-0.7,1.3c-0.3-0.1-0.6-0.1-0.8-0.2
	c-0.3,0.6-0.1,1.4,0.5,1.9c1.3,1.3,2,3,2.6,4.7c0.1,0.4,0.5,0.6,0.6,0.9c0.1,0.4,0.3,0.8,0.2,1.2c-0.1,0.7-0.1,1.5-0.2,2.1
	c-0.1,0.5-0.3,1.1-0.1,1.6c0.1,0.4,0.1,0.9,0,1.3c-0.2,0.5-0.2,1.1-0.2,1.7c0,0.4,0,0.8,0.3,1.1c0.3,0.4,0.6,0.8,1,1.1
	c0.5,0.3,1.2,0.3,1.6,0.7c0.1,0.2,0,0.5,0,0.8c-1.3,0.2-2.5,0.2-3.7-0.2c-0.7-0.2-1.5,0.2-2-0.2c0-0.8,0.2-1.5,0.5-2.1
	c0.1-0.5,0-1.1,0-1.6c0-0.5-0.3-0.9-0.4-1.3c-0.3-0.9-0.4-1.9-0.4-2.8c-0.1-0.5,0.4-0.8,0.4-1.3c0.1-0.4,0-0.8-0.2-1.2
	c-0.5,0-1.1,0.1-1.4-0.4c-0.6-0.8-1.1-1.6-1.6-2.2c-0.2-0.3-0.7-0.3-1-0.4c-0.3-0.2-0.4-0.6-0.6-0.9c-0.1,0.4-0.2,0.7-0.5,1
	c-0.4,0.4-0.6,1-0.8,1.5c-0.2,0.4-0.3,0.8-0.4,1.2c-0.1,0.3-0.1,0.7-0.4,0.9c-0.4,0.3-0.6,0.8-1,1.2c-0.3,0.3-0.5,0.6-0.6,1
	c0,0.3,0.1,0.7,0,1c-0.2,0.6-0.5,1.1-0.8,1.7c-0.2,0.4-0.3,0.8-0.5,1.2c-0.1,0.3-0.5,0.4-0.7,0.6c-0.5,0.9-0.7,1.9-0.5,2.9
	c0.3,0.3,0.4,0.7,0.3,1.2c-0.3,0-0.7,0.1-1,0.1h-1c-0.3-0.1-0.5-0.1-0.8-0.2c-0.2-0.5-0.2-1.1,0-1.7c0.2-0.8,0.5-1.6,0.7-2.4
	c0.1-0.4-0.2-0.8-0.2-1.2c0-0.6,0.4-1.1,0.6-1.6c0.3-0.4,0.2-1,0.4-1.4c0.4-1,1.2-1.8,1.7-2.7c0.1-0.4,0-0.8,0-1.2
	c0-0.8,0.2-1.6,0.3-2.2c0-0.3,0.1-0.6,0-0.9c-0.1-0.4-0.2-0.7-0.2-1.1c0.1-0.3-0.2-0.7,0-1c0.1-0.3,0.3-0.4,0.6-0.6
	c0-1.2-0.4-2.2-0.2-3.4c0.2-0.3,0.6-0.3,0.9-0.5c-0.4-0.1-0.9-0.2-1.3-0.3c0-0.5,0.1-0.9,0.2-1.4c0.2-0.7,0.1-1.5,0.2-2.1
	c0-0.2,0.2-0.2,0.4-0.3c0.4,0,0.8,0,1.2-0.1c-0.1-0.9-0.2-1.8,0-2.7c0.1-1,0.6-2,1.6-2.7c0.7-0.4,1.6-0.7,2.2-0.2
	c0.1,0,0.2-0.1,0.2-0.1c-0.4-1-0.3-2.1,0.3-3C71.7,61.5,72.4,61.1,73,60.9z M79.3,67.8c0,0.3-0.1,0.5-0.4,0.7c0.4,0,0.7,0,1.1-0.1
	c0-0.2,0-0.4,0-0.6C79.8,67.8,79.6,67.8,79.3,67.8z M78.6,68.5L78.6,68.5c0,0.5,0.2,0.8,0.4,1.1c0.3-0.4,0.6-0.7,0.8-1.1
	C79.4,68.5,79,68.5,78.6,68.5z"/>
</svg>
