<?xml version="1.0" encoding="utf-8"?>
<!-- Generator: Adobe Illustrator 18.0.0, SVG Export Plug-In . SVG Version: 6.00 Build 0)  -->
<!DOCTYPE svg PUBLIC "-//W3C//DTD SVG 1.1//EN" "http://www.w3.org/Graphics/SVG/1.1/DTD/svg11.dtd">
<svg version="1.1" id="Layer_1" xmlns="http://www.w3.org/2000/svg" xmlns:xlink="http://www.w3.org/1999/xlink" x="0px" y="0px"
	 viewBox="0 0 100 85" enable-background="new 0 0 100 85" xml:space="preserve">
<g>
	<path d="M25.9,75.2c-0.2,0.3-0.4,0.5-0.5,0.8c-1.2,2.4-3.7,3.4-6.2,2.3c-1.2-0.5-1.8-1.4-1.8-2.7c0-1.1,0.1-2.2,0.7-3.2
		c0.7-1.4,1.2-2.8,1.7-4.3c0.1-0.3,0.1-0.9-0.1-1.2C16.4,62,14.7,56.5,14,50.8c-0.8-6.2,0.4-12.1,2.7-17.8c1.6-3.8,3.8-7.2,6.6-10.3
		c3.1-3.5,6.9-6,11-8.1c0.5-0.3,0.8-0.6,0.9-1.2c0.1-0.8,0.3-1.7,0.7-2.4c0.3-0.6,0.8-1.1,1.3-1.5c0.9-0.8,2-1.5,2.8-2.4
		c1.5-1.8,3.5-2.6,5.7-2.9c1.4-0.2,2.9,0,4.3,0.1c0.5,0.1,1.1,0.4,1.5,0.7c1.3,1,2.6,2,3.9,3C55.5,8,55.7,8,56.1,8
		c-0.2-0.4-0.2-0.9-0.5-1.3c-1.1-1.6-1.4-2.7,0.3-4.8C56.2,1.4,57.1,1,57.7,1c1.2-0.1,2.5-0.1,3.6,0.4c0.6,0.2,1.2,1.3,1.3,2.1
		c0.3,1.7,0.3,3.5,0.3,5.3c0,1.3-0.1,2.7-0.2,4c0,0.5,0.2,0.7,0.6,0.9c5.4,1.8,9.7,5.4,13.4,9.5c2.4,2.6,4.4,5.4,5.9,8.6
		c3,6.6,3.9,13.5,2.8,20.7c-0.6,4.3-1.9,8.3-4,12.1c-0.2,0.4-0.3,0.9-0.3,1.4c-0.1,1-0.2,2-0.4,3c-0.2,0.6-0.7,1.1-1,1.6
		c-0.5,0.7-1,1.3-1.4,2c-0.5,1.2-1.5,1.7-2.6,1.9c-0.7,0.1-1,0.4-1.1,1.1c-0.3,2.2-0.8,4.3-1.1,6.5c-0.1,0.9-0.6,1.4-1.4,1.6
		C71.1,83.7,70,84,68.8,84c-3.9,0-7.8-0.2-11.8-0.1c-6.2,0-12.3,0.1-18.5,0.2c-2.4,0-4.7,0-7.1,0c-2.1,0-3.9-0.7-4.8-2.8
		c-0.1-0.3-0.3-0.7-0.3-1c-0.1-1.4-0.1-2.9-0.1-4.3c0-0.2-0.1-0.5-0.1-0.7C26.1,75.2,26,75.2,25.9,75.2z M57.9,4
		c-0.4,0.4-0.2,0.8,0.2,1.2c1.3,1.8,1.3,3.7,0,5.6c-0.1,0.1-0.1,0.3-0.1,0.5c-0.1,0.8-0.1,1.5-0.1,2.3c-0.1,1.1-0.5,1.4-1.5,0.9
		c-0.4-0.2-0.8-0.5-1-0.9c-0.5-0.9-0.9-1.9-1.3-2.9c-0.8-2-2.2-3.3-4.4-3.7c-3.1-0.6-5.8-0.1-8,2.5C41.1,10,40.6,10.7,40,11
		c-1.7,0.6-2.2,1.8-2.2,3.5c0,0.2-0.1,0.4-0.1,0.6c0,0.8-0.4,1.3-1.2,1.6c-0.7,0.3-1.5,0.6-2.2,1C27.3,21.5,22,27,19.1,34.7
		c-4.2,10.9-3.1,21.3,3.3,31.1c0.6,0.9,0.8,1.7,0.3,2.7c-0.8,1.9-1.6,3.7-2.3,5.6c-0.2,0.5-0.1,1-0.1,1.5c0.6,0,1.3,0.1,1.9-0.1
		c0.3-0.1,0.6-0.6,0.7-1c0.6-1.3,1.2-2.7,1.7-4c0.2-0.5,0.5-0.7,0.9-0.4c1.1,0.8,2.3,1.7,3.3,2.7c0.4,0.4,0.3,1.4,0.2,2.1
		c-0.3,2.1,0.3,3.9,1.7,5.5c0.4,0.4,0.7,0.6,1.3,0.6c4.2,0,8.3,0,12.5,0c0.7,0,1.3-0.2,2-0.3c0.3,0,0.5-0.1,0.8-0.1
		c2.3,0.1,4.7,0.3,7,0.4c0.3,0,0.7-0.1,1-0.2c0.9-0.4,1.8-0.6,2.7,0c0.3,0.2,0.8,0.2,1.2,0.2c3.5,0,7,0,10.5,0
		c1.8,0,2.4-0.8,2.3-2.5c0-0.9-0.2-1.8,0-2.7c0.4-1.6,0.9-3.2,1.4-4.8c0.2-0.6,0.5-0.7,0.9-0.4c0.4,0.2,0.7,0.5,1.2,0.8
		c0.2-0.4,0.4-0.8,0.7-1.2c0.3-0.5,0.6-1.1,1-1.4c0.9-0.6,1.3-1.4,1.1-2.4c-0.2-1.2,0-2.3,0.6-3.3c0.7-1.2,1.2-2.5,1.7-3.7
		c3.5-9.4,3.3-18.7-1.6-27.6c-4.1-7.6-10.5-12.7-18.3-16.1c-0.7-0.3-1-0.7-1-1.5c0.1-3.1,0.2-6.2,0.2-9.3c0-0.3-0.1-0.7-0.1-0.8
		C59.1,4.1,58.6,4.1,57.9,4z"/>
	<path fill="#FFFFFF" d="M57.9,4c0.7,0.1,1.3,0.2,2,0.2C59.9,4.3,60,4.6,60,5c-0.1,3.1-0.1,6.2-0.2,9.3c0,0.8,0.3,1.2,1,1.5
		c7.8,3.4,14.2,8.5,18.3,16.1c4.9,8.9,5.1,18.2,1.6,27.6c-0.5,1.3-1,2.5-1.7,3.7c-0.6,1.1-0.8,2.1-0.6,3.3c0.2,1-0.2,1.8-1.1,2.4
		c-0.4,0.3-0.7,0.9-1,1.4c-0.2,0.4-0.4,0.8-0.7,1.2c-0.5-0.3-0.8-0.6-1.2-0.8c-0.4-0.2-0.8-0.2-0.9,0.4c-0.4,1.6-1,3.2-1.4,4.8
		c-0.2,0.9-0.1,1.8,0,2.7c0.1,1.8-0.5,2.5-2.3,2.5c-3.5,0.1-7,0-10.5,0c-0.4,0-0.9,0-1.2-0.2c-0.9-0.5-1.8-0.3-2.7,0
		c-0.3,0.1-0.7,0.2-1,0.2c-2.3-0.1-4.7-0.3-7-0.4c-0.3,0-0.5,0-0.8,0.1c-0.7,0.1-1.3,0.3-2,0.3c-4.2,0-8.3,0-12.5,0
		c-0.6,0-0.9-0.2-1.3-0.6c-1.4-1.6-2-3.4-1.7-5.5c0.1-0.7,0.2-1.7-0.2-2.1c-0.9-1-2.1-1.9-3.3-2.7c-0.4-0.3-0.7,0-0.9,0.4
		c-0.6,1.3-1.1,2.7-1.7,4c-0.2,0.4-0.4,0.9-0.7,1c-0.6,0.2-1.3,0.1-1.9,0.1c0-0.5-0.1-1.1,0.1-1.5c0.7-1.9,1.5-3.8,2.3-5.6
		c0.4-1,0.2-1.8-0.3-2.7c-6.4-9.8-7.5-20.2-3.3-31.1C22,27,27.3,21.5,34.5,17.6c0.7-0.4,1.4-0.7,2.2-1c0.7-0.3,1.1-0.8,1.2-1.6
		c0-0.2,0.1-0.4,0.1-0.6c0-1.6,0.5-2.8,2.2-3.5c0.6-0.2,1.1-0.9,1.6-1.5c2.1-2.6,4.8-3.1,8-2.5c2.1,0.4,3.6,1.7,4.4,3.7
		c0.4,1,0.8,2,1.3,2.9c0.2,0.4,0.6,0.7,1,0.9c1,0.5,1.5,0.2,1.5-0.9c0-0.8,0.1-1.5,0.1-2.3c0-0.2,0.1-0.4,0.1-0.5
		c1.3-1.9,1.3-3.7,0-5.6C57.7,4.8,57.4,4.3,57.9,4z M42.8,20.9c-1.2,1.4-1.7,1.4-3,0.4c-0.3-0.2-0.5-0.4-0.8-0.6
		c-0.4-0.4-0.9-0.5-1.4-0.2c-3.8,1.8-7.1,4.3-9.9,7.4c-7.9,9.1-9.3,22.6-3.5,33.1c0.2,0.3,0.5,0.6,0.9,1.1c0.4-1,0.7-1.8,1-2.6
		c0.6-1.4,1.2-2.7,1.8-4.1c0.3-0.6,0.4-1.4,0.9-1.9c1.1-1,1.3-2.3,1.4-3.7c0.1-0.9,0.1-1.8,0.3-2.7c0-0.3,0.3-0.6,0.6-0.7
		c1.4-0.5,1.8-1.7,2.1-3c0.1-0.3,0.2-0.7,0.3-1c0.2-0.6,0.5-1.1,0.7-1.7c0.7-2.2,1.4-4.3,1.3-6.7c0-0.9,0.3-1.8,0.6-2.7
		c0.3-0.9,0.9-1.7,1.4-2.4c0.3-0.4,0.8-0.8,1.2-1c0.7-0.4,1.7-0.6,2.3-1.1c1.1-0.9,2.3-1.2,3.6-1.5c1.4-0.3,1.6-0.6,1.2-2.1
		c-0.9,0.1-1.8,0.1-2.8,0.2C42.8,22.6,42.8,21.9,42.8,20.9z M60.4,19.9c0,1.4,0.1,2.8,0,4.2c-0.1,1.4,0.6,2.3,1.7,3
		c0.5,0.3,1,0.5,1.5,0.7c0.9,0.3,1.5,0.9,1.9,1.7c0.6,1.5,1.2,3,1.8,4.5c0.3,0.7,0.7,1.4,1,2.1c0.4,0.9,0.6,1.9,0.9,2.8
		c0.2,0.8,0.7,1.6,0.5,2.3c-0.5,2.1,0.6,3.6,2.1,4.6c1.4,0.9,1.3,2.2,1.4,3.5c0,0.4-0.1,0.9,0,1.3c1,2.9,2,5.8,3.2,9
		C84.4,43.6,75.7,24.4,60.4,19.9z M69.6,74.6c0.3,0,0.5-0.1,0.7,0c0.7,0.1,1-0.2,1-1c0-0.7-0.1-1.3-1-1.2c-0.7,0.1-0.9-0.3-0.9-0.9
		c0-2.9,0-5.9-0.1-8.8c0-0.6,0.2-0.8,0.8-0.8c0.8,0.1,1.2-0.3,1.2-1.2c0-0.9-0.4-1.1-1.2-1.1c-0.7,0.1-0.8-0.3-0.8-0.9
		c0-0.7,0-1.5-0.1-2.2c-0.1-0.6-0.4-1.1-1.1-1.1c-1.1-0.1-2.1-0.2-3.2-0.2c-4.5,0-9.1,0-13.6,0.1c-2.2,0-4.3,0.2-6.5,0.2
		c-1.7,0-3.4-0.2-5.1-0.2c-2-0.1-4.1-0.1-6.1-0.1c-1.4,0-1.6,0.3-1.6,1.7c0,0.9,0,1.8,0,2.8c-0.4,0-0.5,0-0.7,0
		c-0.8,0-1.2,0.2-1.2,1.1c0,0.9,0.3,1.2,1.1,1.1c0.7-0.1,0.7,0.4,0.7,0.9c0,2.8,0,5.6,0,8.5c0,0.8,0,1.3-1,1.2
		c-0.6,0-0.8,0.4-0.7,0.9c0.1,0.5-0.2,1.4,0.7,1.3c1.2-0.1,1.2,0.5,1.1,1.4c0,0.3,0,0.6,0,0.9c0,1.6,0.3,2,1.9,2
		c5.1,0,10.1,0,15.2,0c2.8,0,5.5-0.1,8.3-0.1c3.5,0,7,0.1,10.5,0.1c1.3,0,1.7-0.4,1.7-1.7C69.6,76.4,69.6,75.5,69.6,74.6z
		 M67.3,53.7c-0.8-0.9-1.6-1.8-2.4-2.7c-0.2-0.2-0.3-0.8-0.1-0.9c0.7-0.6,0.6-1.3,0.3-2.1c-0.3-0.8-0.5-1.7-0.9-2.5
		c-0.3-0.7-0.7-1.3-1.2-2.1c-0.1,0.8,0,1.5-0.3,2.1c-0.6,1.2-1.4,2.4-2.1,3.6c-0.1,0.1-0.1,0.3-0.1,0.4c0.1,1.4,0.2,2.7,0.3,4.1
		C63.1,53.7,65.3,53.7,67.3,53.7z M38.6,50.3c-1.3,1.2-2.5,2.3-3.8,3.5c1.3,0,2.4,0,3.5,0c0.2,0,0.4-0.1,0.5-0.2
		c0.4-0.9,0.9-1.7,1.2-2.7c0.2-0.6,0-1.3,0.3-1.9c0.5-1.3-0.3-1.9-1.2-2.7c-0.4,0.8-0.7,1.5-1,2.2C37.7,49.1,37.5,49.7,38.6,50.3z
		 M53.5,18.1c0.2,1.3,0.4,2.3,0.7,3.3c0.2,0.7,0.7,1.4,1.1,2.1c0.3,0.5,0.6,1,1,1.3c0.4,0.3,0.7,0.1,0.7-0.4c0-1.7,0.1-3.5,0.1-5.2
		c0-0.2-0.3-0.6-0.5-0.6C55.6,18.4,54.7,18.3,53.5,18.1z"/>
	<path d="M42.8,20.9c0,0.9,0,1.7,0,2.6c1-0.1,1.9-0.1,2.8-0.2c0.4,1.5,0.2,1.8-1.2,2.1c-1.3,0.3-2.6,0.6-3.6,1.5
		c-0.6,0.5-1.5,0.7-2.3,1.1c-0.5,0.3-0.9,0.6-1.2,1c-0.5,0.8-1.1,1.6-1.4,2.4c-0.3,0.9-0.6,1.8-0.6,2.7c0.1,2.3-0.6,4.5-1.3,6.7
		c-0.2,0.6-0.5,1.2-0.7,1.7c-0.1,0.3-0.2,0.7-0.3,1c-0.2,1.3-0.7,2.4-2.1,3c-0.2,0.1-0.5,0.4-0.6,0.7c-0.2,0.9-0.2,1.8-0.3,2.7
		c-0.1,1.4-0.3,2.7-1.4,3.7c-0.5,0.4-0.6,1.2-0.9,1.9c-0.6,1.4-1.2,2.7-1.8,4.1c-0.3,0.8-0.6,1.6-1,2.6c-0.4-0.5-0.7-0.8-0.9-1.1
		c-5.8-10.5-4.3-24,3.5-33.1c2.8-3.2,6.1-5.7,9.9-7.4c0.6-0.3,1-0.2,1.4,0.2c0.2,0.2,0.5,0.4,0.8,0.6C41.1,22.3,41.6,22.3,42.8,20.9
		z"/>
	<path d="M60.4,19.9c15.2,4.5,23.9,23.6,15.8,39.6c-1.1-3.1-2.2-6-3.2-9c-0.1-0.4,0-0.8,0-1.3c-0.1-1.3,0-2.5-1.4-3.5
		c-1.5-1-2.6-2.4-2.1-4.6c0.2-0.7-0.3-1.6-0.5-2.3c-0.3-1-0.6-1.9-0.9-2.8c-0.3-0.7-0.7-1.4-1-2.1c-0.6-1.5-1.2-3-1.8-4.5
		c-0.3-0.9-1-1.4-1.9-1.7c-0.5-0.2-1-0.4-1.5-0.7c-1.1-0.7-1.8-1.5-1.7-3C60.5,22.7,60.4,21.4,60.4,19.9z"/>
	<path d="M69.6,74.6c0,0.9,0,1.7,0,2.6c0,1.3-0.4,1.7-1.7,1.7c-3.5,0-7-0.1-10.5-0.1c-2.8,0-5.5,0.1-8.3,0.1c-5.1,0-10.1,0-15.2,0
		c-1.5,0-1.9-0.4-1.9-2c0-0.3,0-0.6,0-0.9c0.1-0.9,0-1.4-1.1-1.4c-0.9,0.1-0.6-0.8-0.7-1.3c-0.1-0.6,0.2-1,0.7-0.9
		c1,0.1,1-0.5,1-1.2c0-2.8,0-5.6,0-8.5c0-0.5,0-0.9-0.7-0.9c-0.8,0.1-1.1-0.2-1.1-1.1c0-0.9,0.4-1.1,1.2-1.1c0.1,0,0.3,0,0.7,0
		c0-0.9,0-1.9,0-2.8c0-1.3,0.3-1.7,1.6-1.7c2,0,4.1,0,6.1,0.1c1.7,0,3.4,0.2,5.1,0.2c2.2,0,4.3-0.2,6.5-0.2c4.5,0,9.1-0.1,13.6-0.1
		c1.1,0,2.1,0.1,3.2,0.2c0.7,0.1,1,0.5,1.1,1.1c0.1,0.7,0.1,1.5,0.1,2.2c0,0.6,0.1,0.9,0.8,0.9c0.7-0.1,1.2,0.2,1.2,1.1
		c0,0.9-0.3,1.2-1.2,1.2c-0.6,0-0.8,0.2-0.8,0.8c0.1,2.9,0.1,5.9,0.1,8.8c0,0.7,0.2,1,0.9,0.9c0.9-0.1,1,0.5,1,1.2c0,0.8-0.3,1-1,1
		C70.1,74.6,69.9,74.6,69.6,74.6z M34.3,57.6c0,1.1,0,2.2,0,3.3c-0.1,4.7-0.1,9.4-0.2,14.1c0,1.6,0.1,1.7,1.7,1.7
		c0.7,0,1.4,0.1,2.1,0.1c4.1,0,8.2-0.1,12.4-0.1c3,0,5.9,0,8.9,0c2.3,0,4.6,0,6.8,0c1.3,0,1.3,0,1.3-1.2c-0.1-5.2-0.1-10.3-0.2-15.5
		c-0.1-2.9,0.4-2.4-2.5-2.4c-9.2,0-18.5,0-27.7,0C36.1,57.6,35.3,57.6,34.3,57.6z"/>
	<path d="M67.3,53.7c-2.1,0-4.2,0-6.4,0c-0.1-1.4-0.2-2.8-0.3-4.1c0-0.1,0.1-0.3,0.1-0.4c0.7-1.2,1.5-2.3,2.1-3.6
		c0.3-0.5,0.2-1.2,0.3-2.1c0.5,0.8,0.9,1.4,1.2,2.1c0.4,0.8,0.6,1.7,0.9,2.5c0.3,0.7,0.4,1.4-0.3,2.1c-0.1,0.1,0,0.7,0.1,0.9
		C65.7,52,66.5,52.8,67.3,53.7z"/>
	<path d="M38.6,50.3c-1.1-0.6-0.9-1.2-0.6-1.8c0.4-0.7,0.7-1.4,1-2.2c0.9,0.8,1.7,1.4,1.2,2.7c-0.2,0.6-0.1,1.3-0.3,1.9
		c-0.3,0.9-0.8,1.8-1.2,2.7c-0.1,0.1-0.3,0.2-0.5,0.2c-1.1,0-2.2,0-3.5,0C36.1,52.6,37.3,51.5,38.6,50.3z"/>
	<path d="M53.5,18.1c1.2,0.2,2.2,0.3,3.1,0.6c0.2,0,0.5,0.4,0.5,0.6c0,1.7,0,3.5-0.1,5.2c0,0.5-0.4,0.7-0.7,0.4
		c-0.4-0.4-0.7-0.9-1-1.3c-0.4-0.7-0.8-1.4-1.1-2.1C53.8,20.4,53.7,19.3,53.5,18.1z"/>
	<path fill="#FFFFFF" d="M34.3,57.6c0.9,0,1.8,0,2.6,0c9.2,0,18.5-0.1,27.7,0c2.9,0,2.5-0.5,2.5,2.4c0.1,5.2,0.1,10.3,0.2,15.5
		c0,1.3,0,1.3-1.3,1.2c-2.3,0-4.6,0-6.8,0c-3,0-5.9,0-8.9,0c-4.1,0-8.2,0.1-12.4,0.1c-0.7,0-1.4-0.1-2.1-0.1c-1.5,0-1.7-0.2-1.7-1.7
		c0.1-4.7,0.1-9.4,0.2-14.1C34.4,59.8,34.3,58.7,34.3,57.6z M57.2,66.6c-0.1,0-0.1,0-0.2,0c0.2-0.4,0.4-0.8,0.4-1.3
		c0.1-1.5,0-3,0.1-4.5c0-0.6-0.3-0.9-0.9-0.9c-1.3,0-2.6-0.1-3.9,0c-0.2,0-0.6,0.4-0.6,0.6c0,1,0,2.1,0,3.1c0,0.7,0,1.4-0.1,2.1
		c0,0.6-0.2,1.2-0.2,1.7c0,0.6,0.2,1.1,0.2,1.7c0.1,1.5,0,3,0.1,4.5c0,0.3,0.4,0.7,0.6,0.7c1.2,0,2.4,0,3.6,0
		c0.8-0.1,1.2-0.5,1.2-1.4c0-1.3,0.1-2.7,0-4C57.6,68.1,57.3,67.4,57.2,66.6z M46.6,66.3C46.6,66.3,46.6,66.3,46.6,66.3
		c0-0.5,0-1.1,0-1.6c0-1.3,0-2.7,0-4c0-1-0.8-0.7-1.3-0.7c-0.6-0.1-0.9,0.2-0.8,0.8c0.1,0.5,0.2,1,0.1,1.4c0,3.7-0.1,7.3-0.1,11
		c0,0.9,0.4,1.3,1.4,1.2c1,0,1.9,0,2.9-0.1c1.3,0,1.6-0.3,1.7-1.7c0-3.9,0-7.8,0-11.7c0-0.6-0.3-0.9-0.9-0.9c-0.6,0-1.2,0-1.2,0.8
		c0,1.1,0,2.1,0,3.2c0,2.5,0,5,0,7.5c0,1-0.7,0.8-1.2,0.8c-0.7,0-0.5-0.5-0.5-0.9C46.6,69.7,46.6,68,46.6,66.3z M64.7,63.1
		c0-0.7,0-1.4,0-2.1c0-0.8-0.4-1.2-1.2-1.2c-0.9,0-1.8,0-2.7,0c-1.2,0-1.6,0.3-1.7,1.5c-0.1,0.6,0,1.2,0,1.8c0,1.9,0,3.9,0,5.8
		c0,1.3,0,2.6,0,3.9c0,0.8,0.3,1.4,1.2,1.4c1.1,0.1,2.1,0.1,3.2,0c0.7,0,1.2-0.3,1.2-1.1c0-2.3,0.1-4.6,0-6.9c0-0.2-0.3-0.6-0.6-0.6
		c-0.6-0.1-1.2,0-1.9,0c0,0.7-0.1,1.2,0,1.7c0.1,0.5,0.3,1.1,0.4,1.6c0.1,0.7,0,1.5,0,2.2c0.1,1.4-0.2,1.5-1.4,1c0-0.9,0-1.7,0-2.6
		c0-2.4,0-4.9-0.1-7.3c0-0.5,0.1-0.8,0.6-0.7c0.4,0,0.9-0.2,1,0.6C63.1,63.4,63.2,63.4,64.7,63.1z M39.3,68.5c0.8,0,1.5,0,2.3,0
		c0.8,0,1.2-0.5,1.2-1.2c0-2.1,0-4.2,0-6.3c0-0.7-0.4-1.1-1.1-1.1c-0.9,0-1.8,0-2.6,0c-2,0-1.9,0-2,2c-0.1,1.7-0.2,3.4-0.3,5.1
		c0,0.6,0.3,1.3,0.3,1.9c0,1.4,0,2.8,0,4.3c0,1,0.2,1.2,1.2,1.2c0.9,0,1-0.4,1-1.2C39.3,71.7,39.3,70.1,39.3,68.5z"/>
	<path d="M57.2,66.6c0.1,0.8,0.4,1.5,0.4,2.3c0.1,1.3,0,2.7,0,4c0,0.8-0.4,1.3-1.2,1.4c-1.2,0.1-2.4,0.1-3.6,0
		c-0.2,0-0.6-0.5-0.6-0.7c-0.1-1.5,0-3-0.1-4.5c0-0.6-0.2-1.1-0.2-1.7c0-0.6,0.1-1.1,0.2-1.7c0.1-0.7,0.1-1.4,0.1-2.1
		c0-1-0.1-2.1,0-3.1c0-0.2,0.4-0.6,0.6-0.6c1.3,0,2.6,0,3.9,0c0.6,0,0.9,0.3,0.9,0.9c0,1.5,0,3-0.1,4.5c0,0.4-0.3,0.8-0.4,1.3
		C57.1,66.6,57.1,66.6,57.2,66.6z M55.4,72.4c0-1.4,0-2.7,0-4c0-0.2-0.4-0.6-0.6-0.7c-0.5-0.1-0.6,0.3-0.6,0.7c0,1,0,1.9,0,2.9
		C54.1,72.6,54.1,72.6,55.4,72.4z M54.2,61.8c0,1.1,0,2.2,0,3.2c0,0.5,0.4,0.7,0.8,0.6c0.2-0.1,0.5-0.4,0.5-0.7c0.1-0.8,0-1.6,0-2.4
		C55.5,61.7,55.1,61.5,54.2,61.8z"/>
	<path d="M46.6,66.3c0,1.7,0,3.5,0,5.2c0,0.4-0.2,0.9,0.5,0.9c0.5,0,1.2,0.2,1.2-0.8c0-2.5,0-5,0-7.5c0-1.1,0-2.1,0-3.2
		c0-0.9,0.6-0.8,1.2-0.8c0.7,0,0.9,0.3,0.9,0.9c0,3.9,0,7.8,0,11.7c0,1.4-0.3,1.6-1.7,1.7c-1,0-1.9,0-2.9,0.1
		c-0.9,0-1.4-0.3-1.4-1.2c0-3.7,0.1-7.3,0.1-11c0-0.5-0.1-1-0.1-1.4c-0.1-0.6,0.2-0.8,0.8-0.8c0.6,0.1,1.3-0.3,1.3,0.7
		c0,1.3,0,2.7,0,4C46.6,65.2,46.6,65.7,46.6,66.3C46.6,66.3,46.6,66.3,46.6,66.3z"/>
	<path d="M64.7,63.1c-1.5,0.3-1.6,0.3-1.8-0.9c-0.1-0.7-0.6-0.5-1-0.6c-0.5,0-0.7,0.3-0.6,0.7c0,2.4,0.1,4.9,0.1,7.3
		c0,0.8,0,1.7,0,2.6c1.3,0.5,1.5,0.3,1.4-1c0-0.7,0-1.5,0-2.2c-0.1-0.5-0.3-1.1-0.4-1.6c-0.1-0.5,0-1.1,0-1.7c0.7,0,1.3-0.1,1.9,0
		c0.2,0,0.6,0.4,0.6,0.6c0,2.3,0,4.6,0,6.9c0,0.8-0.6,1.1-1.2,1.1c-1.1,0-2.1,0-3.2,0c-0.9,0-1.2-0.7-1.2-1.4c0-1.3,0-2.6,0-3.9
		c0-1.9,0-3.9,0-5.8c0-0.6,0-1.2,0-1.8c0.1-1.2,0.5-1.5,1.7-1.5c0.9,0,1.8,0,2.7,0c0.7,0,1.2,0.4,1.2,1.2
		C64.7,61.7,64.7,62.4,64.7,63.1z"/>
	<path d="M39.3,68.5c0,1.7,0,3.2,0,4.8c0,0.8-0.1,1.2-1,1.2c-1,0-1.2-0.2-1.2-1.2c0-1.4,0.1-2.8,0-4.3c0-0.6-0.3-1.3-0.3-1.9
		c0-1.7,0.2-3.4,0.3-5.1c0.1-2,0-2,2-2c0.9,0,1.8,0,2.6,0c0.7,0,1.1,0.4,1.1,1.1c0,2.1,0,4.2,0,6.3c0,0.7-0.4,1.2-1.2,1.2
		C40.8,68.5,40.1,68.5,39.3,68.5z M39.3,64.2C39.3,64.2,39.3,64.2,39.3,64.2c0,0.6,0,1.2,0,1.7c0,0.8,0.6,0.7,0.9,0.6
		c0.3-0.1,0.6-0.4,0.6-0.6c0-1.1-0.2-2.2-0.2-3.3c0-0.6-0.2-0.8-0.7-0.8c-0.6,0-0.6,0.3-0.6,0.8C39.3,63.1,39.3,63.6,39.3,64.2z"/>
	<path fill="#FFFFFF" d="M55.4,72.4c-1.3,0.2-1.3,0.2-1.3-1.1c0-1,0-1.9,0-2.9c0-0.4,0.1-0.9,0.6-0.7c0.2,0.1,0.6,0.4,0.6,0.7
		C55.4,69.7,55.4,71,55.4,72.4z"/>
	<path fill="#FFFFFF" d="M54.2,61.8c0.9-0.3,1.3-0.1,1.3,0.8c0,0.8,0,1.6,0,2.4c0,0.2-0.3,0.6-0.5,0.7c-0.4,0.1-0.8-0.1-0.8-0.6
		C54.2,64,54.2,62.9,54.2,61.8z"/>
	<path fill="#FFFFFF" d="M39.3,64.2c0-0.5,0-1.1,0-1.6c0-0.5,0-0.8,0.6-0.8c0.5,0,0.7,0.2,0.7,0.8c0,1.1,0.2,2.2,0.2,3.3
		c0,0.2-0.4,0.6-0.6,0.6c-0.4,0.1-1,0.2-0.9-0.6C39.2,65.3,39.3,64.7,39.3,64.2C39.3,64.2,39.3,64.2,39.3,64.2z"/>
</g>
</svg>
