<?xml version="1.0" encoding="utf-8"?>
<!-- Generator: Adobe Illustrator 16.0.3, SVG Export Plug-In . SVG Version: 6.00 Build 0)  -->
<!DOCTYPE svg PUBLIC "-//W3C//DTD SVG 1.1//EN" "http://www.w3.org/Graphics/SVG/1.1/DTD/svg11.dtd">
<svg version="1.1" id="Layer_1" xmlns="http://www.w3.org/2000/svg" xmlns:xlink="http://www.w3.org/1999/xlink" x="0px" y="0px"
	 width="100px" height="85px" viewBox="0 0 100 85" enable-background="new 0 0 100 85" xml:space="preserve">
<g>
	<path fill="#FFFDFD" d="M59.5,35.102C70.798,25.908,80.492,14.853,88.142,2.38c0.166-0.27,0.116-0.619-0.117-0.832
		c-0.234-0.213-0.586-0.229-0.84-0.04c-2.65,1.988-6.8,4.885-10.986,6.948c-5.412,2.668-11.227,3.757-14.165,4.166
		c-1.239,0.173-2.341,0.874-3.024,1.921c-1.445,2.218-4.248,6.375-7.86,11.064c1.673,2.08,3.478,4.21,5.37,6.269
		C57.558,33.007,58.551,34.081,59.5,35.102z"/>
	<path fill="#FFFDFD" d="M37.939,40.725c-4.786,5.091-8.17,8.525-10.118,10.464l-0.881-0.881c-1.081-1.08-2.833-1.08-3.914,0
		c-1.081,1.081-1.081,2.833,0,3.914l0.389,0.389c-0.996-0.098-2.025,0.234-2.787,0.996c-0.895,0.895-1.193,2.156-0.903,3.299
		c-1.143-0.291-2.405,0.008-3.299,0.902c-0.894,0.895-1.193,2.156-0.903,3.299c-1.143-0.289-2.405,0.009-3.299,0.902
		c-0.828,0.828-1.146,1.971-0.959,3.043l-0.535-0.535c-1.081-1.08-2.833-1.08-3.914,0c-1.081,1.08-1.081,2.833,0,3.914
		l11.676,11.676c0.445,0.444,1.028,0.725,1.654,0.793l6.405,0.705c0.103,0.012,0.205,0.018,0.306,0.018
		c1.392,0,2.591-1.049,2.747-2.465c0.167-1.519-0.928-2.886-2.448-3.053l-5.438-0.6l-3.941-3.941
		c0.197,0.035,0.396,0.055,0.596,0.055c0.885,0,1.771-0.338,2.446-1.014c0.894-0.895,1.193-2.156,0.903-3.299
		c0.28,0.071,0.566,0.11,0.853,0.11c0.885,0,1.771-0.338,2.446-1.013c0.895-0.895,1.193-2.156,0.903-3.299
		c0.28,0.07,0.566,0.109,0.853,0.109c0.885,0,1.771-0.338,2.446-1.014c0.762-0.762,1.094-1.791,0.996-2.786l0.779,0.778l0.6,5.439
		c0.156,1.416,1.354,2.464,2.747,2.464c0.101,0,0.203-0.005,0.306-0.017c1.519-0.168,2.615-1.535,2.448-3.054l-0.706-6.405
		c-0.069-0.625-0.349-1.208-0.794-1.653l-1.616-1.616l11.348-11.348C42.809,44.33,40.343,42.568,37.939,40.725z"/>
	<path fill="#FFFDFD" d="M90.197,66.518c-1.081-1.08-2.832-1.08-3.914,0l-0.534,0.535c0.187-1.072-0.132-2.215-0.959-3.042
		c-0.895-0.895-2.155-1.192-3.3-0.903c0.291-1.143-0.008-2.404-0.902-3.299s-2.155-1.192-3.299-0.902
		c0.291-1.143-0.008-2.404-0.902-3.299c-0.322-0.323-0.695-0.566-1.092-0.736c-0.537-0.229-1.122-0.316-1.695-0.26l0.389-0.389
		c1.08-1.081,1.08-2.833,0-3.914c-1.08-1.08-2.832-1.08-3.914,0l-0.881,0.881c-2.638-2.627-7.906-7.992-15.729-16.504
		c-7.178-7.81-13.107-16.537-15.458-20.142c-0.683-1.048-1.786-1.749-3.024-1.921c-2.939-0.409-8.754-1.498-14.166-4.166
		C16.629,6.393,12.48,3.497,9.829,1.508C9.711,1.42,9.573,1.376,9.434,1.376c-0.16,0-0.319,0.058-0.444,0.172
		C8.756,1.762,8.707,2.111,8.872,2.38c10.066,16.41,23.665,30.369,39.806,40.86l0.688,0.447l13.664,13.664l-1.615,1.616
		c-0.445,0.445-0.725,1.028-0.794,1.654l-0.019,0.171l-0.688,6.234c-0.167,1.519,0.929,2.886,2.448,3.053
		c0.103,0.012,0.205,0.018,0.306,0.018c1.393,0,2.592-1.049,2.748-2.465l0.356-3.24l1.282-1.281
		c0.168,0.396,0.412,0.768,0.734,1.091c0.676,0.675,1.561,1.013,2.446,1.013c0.287,0,0.573-0.039,0.853-0.109
		c-0.289,1.143,0.009,2.404,0.903,3.299c0.675,0.676,1.561,1.013,2.446,1.013c0.287,0,0.572-0.039,0.853-0.11
		c-0.29,1.143,0.009,2.404,0.903,3.299c0.675,0.676,1.561,1.014,2.445,1.014c0.199,0,0.398-0.02,0.596-0.055l-3.941,3.941
		l-5.438,0.6c-1.52,0.167-2.615,1.534-2.447,3.053c0.155,1.417,1.354,2.465,2.746,2.465c0.102,0,0.203-0.006,0.307-0.017
		l6.405-0.706c0.626-0.068,1.208-0.349,1.653-0.793l11.676-11.676C91.277,69.351,91.277,67.599,90.197,66.518L90.197,66.518z"/>
</g>
</svg>
