<?xml version="1.0" encoding="utf-8"?>
<!-- Generator: Adobe Illustrator 18.0.0, SVG Export Plug-In . SVG Version: 6.00 Build 0)  -->
<!DOCTYPE svg PUBLIC "-//W3C//DTD SVG 1.1//EN" "http://www.w3.org/Graphics/SVG/1.1/DTD/svg11.dtd">
<svg version="1.1" id="Layer_1" xmlns="http://www.w3.org/2000/svg" xmlns:xlink="http://www.w3.org/1999/xlink" x="0px" y="0px"
	 viewBox="0 0 100 85" enable-background="new 0 0 100 85" xml:space="preserve">
<g>
	<g>
		<path fill="#FFFFFF" d="M98.8,40.9V3c0-0.6-0.7-0.8-1.1-0.4L56.3,54.3c-0.3,0.4,0,1,0.5,1h29.9c0.8,0,1.6-0.4,2-1l9.4-11.8
			C98.5,42.1,98.8,41.5,98.8,40.9L98.8,40.9z M2,42.6l31,38.8c0.5,0.6,1.3,1,2.1,1H65c0.5,0,0.8-0.6,0.5-1L2.5,2.6
			C2.1,2.2,1.4,2.5,1.4,3v37.9C1.4,41.5,1.6,42.1,2,42.6L2,42.6z"/>
	</g>
</g>
</svg>
